<svg width="1370" height="1989" viewBox="0 0 1370 1989" fill="none" xmlns="http://www.w3.org/2000/svg">
  <path
    d="M685 10L685.995 0.0495957C685.333 -0.0165321 684.667 -0.0165319 684.005 0.0495963L685 10ZM641 31L634.041 23.8188C633.433 24.4073 632.903 25.0706 632.463 25.7926L641 31ZM601.5 121.5L611.078 124.373C611.089 124.336 611.1 124.299 611.111 124.261L601.5 121.5ZM580.5 191.5L570.922 188.627C570.837 188.909 570.765 189.196 570.705 189.485L580.5 191.5ZM538.5 433.5L548.317 435.405C548.337 435.3 548.356 435.194 548.373 435.087L538.5 433.5ZM403.5 1129L410.677 1135.96C412.03 1134.57 412.947 1132.81 413.317 1130.91L403.5 1129ZM46 1497.5L38.8226 1490.54C37.5242 1491.88 36.6259 1493.55 36.229 1495.37L46 1497.5ZM10.5 1660.5L0.729049 1658.37C0.576789 1659.07 0.5 1659.78 0.5 1660.5H10.5ZM10.5 1731.5H0.5C0.5 1736.32 3.93997 1740.46 8.68071 1741.33L10.5 1731.5ZM451 1813L460.754 1810.8C459.872 1806.89 456.752 1803.89 452.819 1803.17L451 1813ZM471 1901.5L461.246 1903.7C462.276 1908.26 466.326 1911.5 471 1911.5V1901.5ZM545.5 1901.5L555.39 1902.98C555.82 1900.1 554.975 1897.18 553.075 1894.97C551.176 1892.77 548.41 1891.5 545.5 1891.5V1901.5ZM534 1978.5L524.11 1977.02C523.68 1979.9 524.525 1982.82 526.425 1985.03C528.324 1987.23 531.09 1988.5 534 1988.5V1978.5ZM664.5 1978.5V1988.5C667.465 1988.5 670.278 1987.18 672.178 1984.91C674.077 1982.63 674.869 1979.63 674.339 1976.71L664.5 1978.5ZM650.5 1901.5V1891.5C647.535 1891.5 644.722 1892.82 642.822 1895.09C640.923 1897.37 640.131 1900.37 640.661 1903.29L650.5 1901.5ZM729 30.9999L737.537 25.7925C737.097 25.0704 736.566 24.4072 735.959 23.8186L729 30.9999ZM768.5 121.499L758.889 124.261C758.9 124.298 758.911 124.335 758.922 124.373L768.5 121.499ZM789.5 191.499L799.295 189.484C799.235 189.194 799.163 188.908 799.078 188.625L789.5 191.499ZM831.5 433.497L821.627 435.084C821.644 435.191 821.663 435.297 821.683 435.403L831.5 433.497ZM966.5 1128.99L956.683 1130.9C957.053 1132.8 957.97 1134.56 959.323 1135.96L966.5 1128.99ZM1324 1497.49L1333.77 1495.36C1333.37 1493.54 1332.48 1491.87 1331.18 1490.53L1324 1497.49ZM1359.5 1660.49H1369.5C1369.5 1659.77 1369.42 1659.06 1369.27 1658.36L1359.5 1660.49ZM1359.5 1731.49L1361.32 1741.32C1366.06 1740.45 1369.5 1736.31 1369.5 1731.49H1359.5ZM919 1812.99L917.181 1803.16C913.248 1803.88 910.128 1806.88 909.246 1810.78L919 1812.99ZM899 1901.49V1911.49C903.674 1911.49 907.724 1908.25 908.754 1903.69L899 1901.49ZM824.5 1901.49V1891.49C821.59 1891.49 818.824 1892.76 816.925 1894.96C815.025 1897.16 814.18 1900.09 814.61 1902.97L824.5 1901.49ZM836 1978.49V1988.49C838.91 1988.49 841.676 1987.22 843.575 1985.02C845.475 1982.81 846.32 1979.89 845.89 1977.01L836 1978.49ZM705.5 1978.49L695.661 1976.7C695.131 1979.62 695.923 1982.62 697.822 1984.9C699.722 1987.17 702.535 1988.49 705.5 1988.49V1978.49ZM719.5 1901.49L729.339 1903.28C729.869 1900.36 729.077 1897.36 727.178 1895.08C725.278 1892.8 722.465 1891.49 719.5 1891.49V1901.49ZM684.005 0.0495963C673.75 1.07479 665.24 2.86088 657.09 6.7368C648.982 10.5921 641.91 16.1929 634.041 23.8188L647.959 38.1812C655.106 31.2558 660.371 27.3225 665.679 24.7986C670.943 22.2953 676.925 20.8571 685.995 19.9504L684.005 0.0495963ZM632.463 25.7926C611.447 60.2474 602.735 80.9876 591.889 118.739L611.111 124.261C621.498 88.1068 629.517 69.0295 649.537 36.2074L632.463 25.7926ZM591.922 118.627L570.922 188.627L590.078 194.373L611.078 124.373L591.922 118.627ZM570.705 189.485C551.008 285.224 543.737 337.915 528.627 431.913L548.373 435.087C563.526 340.824 570.709 288.709 590.295 193.515L570.705 189.485ZM528.683 431.595L393.683 1127.09L413.317 1130.91L548.317 435.405L528.683 431.595ZM396.323 1122.04L38.8226 1490.54L53.1774 1504.46L410.677 1135.96L396.323 1122.04ZM36.229 1495.37L0.729049 1658.37L20.271 1662.63L55.771 1499.63L36.229 1495.37ZM0.5 1660.5V1731.5H20.5V1660.5H0.5ZM8.68071 1741.33L449.181 1822.83L452.819 1803.17L12.3193 1721.67L8.68071 1741.33ZM441.246 1815.2L461.246 1903.7L480.754 1899.3L460.754 1810.8L441.246 1815.2ZM471 1911.5H545.5V1891.5H471V1911.5ZM535.61 1900.02L524.11 1977.02L543.89 1979.98L555.39 1902.98L535.61 1900.02ZM534 1988.5H664.5V1968.5H534V1988.5ZM674.339 1976.71L660.339 1899.71L640.661 1903.29L654.661 1980.29L674.339 1976.71ZM650.5 1911.5H685V1891.5H650.5V1911.5ZM684.005 19.9504C693.075 20.8571 699.057 22.2953 704.321 24.7986C709.629 27.3224 714.894 31.2557 722.041 38.1811L735.959 23.8186C728.09 16.1928 721.018 10.5921 712.91 6.73675C704.76 2.86086 696.25 1.07479 685.995 0.0495957L684.005 19.9504ZM720.463 36.2073C740.483 69.0292 748.502 88.1064 758.889 124.261L778.111 118.738C767.265 80.9871 758.553 60.2471 737.537 25.7925L720.463 36.2073ZM758.922 124.373L779.922 194.372L799.078 188.625L778.078 118.626L758.922 124.373ZM779.705 193.514C799.291 288.708 806.474 340.822 821.627 435.084L841.373 431.91C826.263 337.913 818.992 285.222 799.295 189.484L779.705 193.514ZM821.683 435.403L956.683 1130.9L976.317 1127.09L841.317 431.592L821.683 435.403ZM959.323 1135.96L1316.82 1504.45L1331.18 1490.53L973.677 1122.03L959.323 1135.96ZM1314.23 1499.62L1349.73 1662.62L1369.27 1658.36L1333.77 1495.36L1314.23 1499.62ZM1349.5 1660.49V1731.49H1369.5V1660.49H1349.5ZM1357.68 1721.66L917.181 1803.16L920.819 1822.82L1361.32 1741.32L1357.68 1721.66ZM909.246 1810.78L889.246 1899.28L908.754 1903.69L928.754 1815.19L909.246 1810.78ZM899 1891.49H824.5V1911.49H899V1891.49ZM814.61 1902.97L826.11 1979.96L845.89 1977.01L834.39 1900.01L814.61 1902.97ZM836 1968.49H705.5V1988.49H836V1968.49ZM715.339 1980.28L729.339 1903.28L709.661 1899.7L695.661 1976.7L715.339 1980.28ZM719.5 1891.49H685V1911.49H719.5V1891.49Z"
    fill="white" />
</svg>